<svg xmlns="http://www.w3.org/2000/svg" viewBox="0 0 512 512" role="img" aria-labelledby="title desc">
  <title id="title">Logo EPIIBOTS</title>
  <desc id="desc">Marca editorial da EPIIBOTS, grupo de robótica e sistemas inteligentes.</desc>
  <rect width="512" height="512" rx="96" fill="#202836"/>
  <path d="M82 82h348v348H82z" fill="#202836"/>
  <path d="M346 92a28 28 0 1 0 0 56 28 28 0 0 0 0-56Z" fill="#f1c232"/>
  <path d="M112 312c32-50 76-96 132-126 30-16 58-20 84-12 18 6 32 18 42 34" fill="none" stroke="#ffffff" stroke-width="24" stroke-linecap="round"/>
  <path d="M120 356c28-62 66-120 116-160" fill="none" stroke="#ffffff" stroke-width="26" stroke-linecap="round"/>
  <path d="M256 174c-38 30-64 82-78 156-8 44-26 74-54 90" fill="none" stroke="#ffffff" stroke-width="24" stroke-linecap="round"/>
  <text x="256" y="292" text-anchor="middle" font-family="Georgia, 'Times New Roman', serif" font-size="86" font-style="italic" fill="#ffffff">e&#960;i</text>
  <text x="256" y="348" text-anchor="middle" font-family="Arial, Helvetica, sans-serif" font-size="24" font-weight="700" letter-spacing="3" fill="#ffffff">EPIIBOTS</text>
  <text x="256" y="380" text-anchor="middle" font-family="Arial, Helvetica, sans-serif" font-size="14" letter-spacing="1.8" fill="#cbd5e1">ROBOTICS AND INTELLIGENT SYSTEMS</text>
</svg>
